<svg xmlns="http://www.w3.org/2000/svg" fill="none" viewBox="0 0 394 80"><path fill="#000" d="M262 0h68.5v12.7h-27.2v66.6h-13.6V12.7H262V0ZM149 0v12.7H94v20.4h44.3v12.6H94v21h55v12.6H80.5V0h68.5Zm34.5 0h-17.1l61.4 78.9h17.1L206.3 33.5 268 0h-19.7l-42.8 22.7L149 0Z"/><path fill="#000" d="M81 79.3 17 0H0v79.3h13.6V17l50.2 62.3H81Zm252.6-.4c-1 0-1.8-.4-2.5-1s-1.1-1.6-1.1-2.6.3-1.8 1-2.5 1.6-1 2.6-1 1.8.3 2.5 1a3.4 3.4 0 0 1 .6 4.3 3.7 3.7 0 0 1-3 1.8h-.1Zm22.2-16h13.1c.2 3 2.4 5 6 5 4 0 6.1-2.3 6.1-6.7V0h13.6v44.5c0 12.4-7.4 20-19.6 20-11.5 0-19.2-7.2-19.2-18.3v-.3Zm77.4 0h-13c-.2-3.3-2.6-5.4-6.4-5.4-3.9 0-6.4 2-6.4 5 0 2.6 2.1 4 6 4.8l4.6 1c9.3 2 13.6 5.9 13.6 12.9 0 8.4-7.3 14-18.5 14-11.7 0-19.3-5.8-19.5-15h13.4c.4 3.7 3 5.5 7.2 5.5 4 0 6.7-1.8 6.7-4.8 0-2.3-1.8-3.5-6-4.4l-4.8-1.1c-8.9-2-13.2-6.3-13.2-13.2 0-8.4 6.8-13.9 17.4-13.9 10.8 0 17.7 5.5 17.9 14.2v-.2Z"/></svg>